<svg xmlns="http://www.w3.org/2000/svg" version="1.1" width="512px" height="512px" style="shape-rendering:geometricPrecision; text-rendering:geometricPrecision; image-rendering:optimizeQuality; fill-rule:evenodd; clip-rule:evenodd" xmlns:xlink="http://www.w3.org/1999/xlink">
  <g>
    <path style="opacity:1" fill="#dcbaee" d="M 40.5,-0.5 C 183.833,-0.5 327.167,-0.5 470.5,-0.5C 491.833,5.5 505.5,19.1667 511.5,40.5C 511.5,183.833 511.5,327.167 511.5,470.5C 505.5,491.833 491.833,505.5 470.5,511.5C 327.167,511.5 183.833,511.5 40.5,511.5C 19.1667,505.5 5.5,491.833 -0.5,470.5C -0.5,327.167 -0.5,183.833 -0.5,40.5C 5.5,19.1667 19.1667,5.5 40.5,-0.5 Z"/>
  </g>
  <g>
    <path style="opacity:1" fill="#8804fe" d="M 59.5,135.5 C 68.6003,134.216 75.7669,137.216 81,144.5C 106.409,203.647 132.075,262.647 158,321.5C 183.116,261.934 208.783,202.6 235,143.5C 242.071,135.157 250.571,133.324 260.5,138C 265.375,140.896 267.708,145.229 267.5,151C 267.287,154.642 266.453,158.142 265,161.5C 234.942,230.617 204.608,299.617 174,368.5C 166.384,375.617 157.551,377.45 147.5,374C 140.935,369.383 136.435,363.216 134,355.5C 105.528,289.751 76.8611,224.084 48,158.5C 44.9439,147.279 48.7772,139.612 59.5,135.5 Z"/>
  </g>
  <g>
    <path style="opacity:1" fill="#8802fe" d="M 304.5,137.5 C 334.835,137.333 365.168,137.5 395.5,138C 445.088,143.919 467.921,171.752 464,221.5C 460.605,250.553 445.105,269.719 417.5,279C 411.304,280.973 404.971,282.306 398.5,283C 374.502,283.5 350.502,283.667 326.5,283.5C 326.974,310.897 326.474,338.231 325,365.5C 321.945,372.781 316.445,376.114 308.5,375.5C 299.87,375.6 294.036,371.6 291,363.5C 290.333,292.167 290.333,220.833 291,149.5C 293.831,143.496 298.331,139.496 304.5,137.5 Z"/>
  </g>
  <g>
    <path style="opacity:1" fill="#dcbaee" d="M 326.5,169.5 C 347.169,169.333 367.836,169.5 388.5,170C 399.735,170.63 409.735,174.297 418.5,181C 426.108,189.322 429.441,199.155 428.5,210.5C 428.469,235.701 415.802,249.201 390.5,251C 369.169,251.5 347.836,251.667 326.5,251.5C 326.5,224.167 326.5,196.833 326.5,169.5 Z"/>
  </g>
</svg>
